<svg width="23" height="26" viewBox="0 0 23 26" fill="none" xmlns="http://www.w3.org/2000/svg">
<path fill-rule="evenodd" clip-rule="evenodd" d="M6.24999 6V6.875H3.93183C2.81183 6.875 1.87383 7.71967 1.75599 8.83383L0.282492 22.8338C0.250444 23.1387 0.282845 23.447 0.377594 23.7385C0.472342 24.0301 0.627322 24.2985 0.832481 24.5263C1.03764 24.7542 1.2884 24.9363 1.56849 25.061C1.84858 25.1856 2.15174 25.25 2.45833 25.25H20.5417C20.8482 25.25 21.1514 25.1856 21.4315 25.061C21.7116 24.9363 21.9623 24.7542 22.1675 24.5263C22.3727 24.2985 22.5276 24.0301 22.6224 23.7385C22.7171 23.447 22.7495 23.1387 22.7175 22.8338L21.244 8.83383C21.1875 8.29617 20.9339 7.79848 20.5321 7.43676C20.1303 7.07504 19.6088 6.87492 19.0682 6.875H16.75V6C16.75 4.60761 16.1969 3.27226 15.2123 2.28769C14.2277 1.30312 12.8924 0.75 11.5 0.75C10.1076 0.75 8.77225 1.30312 7.78768 2.28769C6.80312 3.27226 6.24999 4.60761 6.24999 6ZM11.5 2.5C10.5717 2.5 9.6815 2.86875 9.02512 3.52513C8.36874 4.1815 7.99999 5.07174 7.99999 6V6.875H15V6C15 5.07174 14.6312 4.1815 13.9749 3.52513C13.3185 2.86875 12.4283 2.5 11.5 2.5ZM7.99999 12.125C7.99999 13.0533 8.36874 13.9435 9.02512 14.5999C9.6815 15.2563 10.5717 15.625 11.5 15.625C12.4283 15.625 13.3185 15.2563 13.9749 14.5999C14.6312 13.9435 15 13.0533 15 12.125V11.25C15 11.0179 15.0922 10.7954 15.2563 10.6313C15.4204 10.4672 15.6429 10.375 15.875 10.375C16.1071 10.375 16.3296 10.4672 16.4937 10.6313C16.6578 10.7954 16.75 11.0179 16.75 11.25V12.125C16.75 13.5174 16.1969 14.8527 15.2123 15.8373C14.2277 16.8219 12.8924 17.375 11.5 17.375C10.1076 17.375 8.77225 16.8219 7.78768 15.8373C6.80312 14.8527 6.24999 13.5174 6.24999 12.125V11.25C6.24999 11.0179 6.34218 10.7954 6.50627 10.6313C6.67037 10.4672 6.89293 10.375 7.12499 10.375C7.35706 10.375 7.57962 10.4672 7.74371 10.6313C7.9078 10.7954 7.99999 11.0179 7.99999 11.25V12.125Z" fill="#BDBDBD"/>
</svg>
