<svg width="27" height="26" viewBox="0 0 27 26" fill="none" xmlns="http://www.w3.org/2000/svg">
<path d="M24 8.33332C24.6189 8.33332 25.2124 8.57915 25.6499 9.01674C26.0875 9.45432 26.3334 10.0478 26.3334 10.6667V15.3333C26.3334 15.9522 26.0875 16.5456 25.6499 16.9832C25.2124 17.4208 24.6189 17.6667 24 17.6667H22.761C22.4766 19.9222 21.3788 21.9964 19.6737 23.5C17.9686 25.0036 15.7734 25.8333 13.5 25.8333V23.5C15.3565 23.5 17.137 22.7625 18.4498 21.4497C19.7625 20.137 20.5 18.3565 20.5 16.5V9.49998C20.5 7.64347 19.7625 5.86299 18.4498 4.55024C17.137 3.23748 15.3565 2.49999 13.5 2.49999C11.6435 2.49999 9.86303 3.23748 8.55027 4.55024C7.23752 5.86299 6.50002 7.64347 6.50002 9.49998V17.6667H3.00002C2.38118 17.6667 1.78769 17.4208 1.3501 16.9832C0.91252 16.5456 0.666687 15.9522 0.666687 15.3333V10.6667C0.666687 10.0478 0.91252 9.45432 1.3501 9.01674C1.78769 8.57915 2.38118 8.33332 3.00002 8.33332H4.23902C4.52372 6.07803 5.62161 4.00414 7.32669 2.50077C9.03176 0.997411 11.2268 0.167908 13.5 0.167908C15.7732 0.167908 17.9683 0.997411 19.6733 2.50077C21.3784 4.00414 22.4763 6.07803 22.761 8.33332H24ZM8.55335 17.4158L9.79002 15.4372C10.9019 16.1337 12.1879 16.5021 13.5 16.5C14.8121 16.5021 16.0981 16.1337 17.21 15.4372L18.4467 17.4158C16.9642 18.3447 15.2495 18.836 13.5 18.8333C11.7506 18.836 10.0359 18.3447 8.55335 17.4158Z" fill="#BDBDBD"/>
</svg>
