<svg width="25" height="22" viewBox="0 0 25 22" fill="none" xmlns="http://www.w3.org/2000/svg">
<path d="M23.7383 4.75471C23.3718 3.90606 22.8433 3.13702 22.1824 2.49064C21.5211 1.84234 20.7413 1.32714 19.8855 0.973066C18.9982 0.604453 18.0464 0.415776 17.0855 0.417988C15.7375 0.417988 14.4223 0.787129 13.2793 1.48439C13.0059 1.65119 12.7461 1.83439 12.5 2.034C12.2539 1.83439 11.9941 1.65119 11.7207 1.48439C10.5777 0.787129 9.2625 0.417988 7.91445 0.417988C6.94375 0.417988 6.00312 0.603926 5.11445 0.973066C4.25586 1.32853 3.48203 1.83986 2.81758 2.49064C2.15585 3.13629 1.62724 3.90551 1.26172 4.75471C0.881641 5.63791 0.6875 6.5758 0.6875 7.54103C0.6875 8.45158 0.873438 9.40041 1.24258 10.3656C1.55156 11.1723 1.99453 12.009 2.56055 12.8539C3.45742 14.191 4.69062 15.5856 6.22187 16.9992C8.75937 19.3426 11.2723 20.9613 11.3789 21.027L12.027 21.4426C12.3141 21.6258 12.6832 21.6258 12.9703 21.4426L13.6184 21.027C13.725 20.9586 16.2352 19.3426 18.7754 16.9992C20.3066 15.5856 21.5398 14.191 22.4367 12.8539C23.0027 12.009 23.4484 11.1723 23.7547 10.3656C24.1238 9.40041 24.3098 8.45158 24.3098 7.54103C24.3125 6.5758 24.1184 5.63791 23.7383 4.75471Z" fill="#BDBDBD"/>
</svg>
