<svg width="25" height="24" viewBox="0 0 25 24" fill="none" xmlns="http://www.w3.org/2000/svg">
<path d="M24.3811 11.8086L13.1182 0.553902C13.0371 0.472648 12.9408 0.408184 12.8347 0.3642C12.7287 0.320217 12.615 0.297577 12.5002 0.297577C12.3854 0.297577 12.2717 0.320217 12.1657 0.3642C12.0597 0.408184 11.9633 0.472648 11.8822 0.553902L0.619348 11.8086C0.291223 12.1367 0.105286 12.5824 0.105286 13.0473C0.105286 14.0125 0.890051 14.7973 1.85529 14.7973H3.042V22.8281C3.042 23.3121 3.43302 23.7031 3.917 23.7031H10.7502V17.5781H13.8127V23.7031H21.0834C21.5674 23.7031 21.9584 23.3121 21.9584 22.8281V14.7973H23.1451C23.61 14.7973 24.0557 14.6141 24.3838 14.2832C25.0647 13.5996 25.0647 12.4922 24.3811 11.8086Z" fill="#3B5884"/>
</svg>
