<svg width="21" height="22" viewBox="0 0 21 22" fill="none" xmlns="http://www.w3.org/2000/svg">
<path d="M1.75 21.5C1.75 21.5 0 21.5 0 19.75C0 18 1.75 12.75 10.5 12.75C19.25 12.75 21 18 21 19.75C21 21.5 19.25 21.5 19.25 21.5H1.75ZM10.5 11C11.8924 11 13.2277 10.4469 14.2123 9.46231C15.1969 8.47774 15.75 7.14239 15.75 5.75C15.75 4.35761 15.1969 3.02226 14.2123 2.03769C13.2277 1.05312 11.8924 0.5 10.5 0.5C9.10761 0.5 7.77226 1.05312 6.78769 2.03769C5.80312 3.02226 5.25 4.35761 5.25 5.75C5.25 7.14239 5.80312 8.47774 6.78769 9.46231C7.77226 10.4469 9.10761 11 10.5 11Z" fill="#BDBDBD"/>
</svg>
